<svg width="24" height="24" viewBox="0 0 24 24" fill="none" xmlns="http://www.w3.org/2000/svg">
<path d="M23.0275 14.7487C22.9414 14.7487 22.8589 14.7145 22.7981 14.6537C22.7373 14.5929 22.7031 14.5104 22.7031 14.4244V13.4806C22.7031 13.3946 22.7373 13.3121 22.7981 13.2512C22.8589 13.1904 22.9414 13.1562 23.0275 13.1562C23.1135 13.1562 23.196 13.1904 23.2568 13.2512C23.3176 13.3121 23.3518 13.3946 23.3518 13.4806V14.4244C23.3518 14.5104 23.3176 14.5929 23.2568 14.6537C23.196 14.7145 23.1135 14.7487 23.0275 14.7487Z" fill="white"/>
<path d="M22.0538 23.3511H1.94573C1.60167 23.3511 1.2717 23.2145 1.02841 22.9712C0.785117 22.7279 0.648438 22.3979 0.648438 22.0538V1.94573C0.648438 1.60167 0.785117 1.2717 1.02841 1.02841C1.2717 0.785117 1.60167 0.648438 1.94573 0.648438H22.0538C22.3979 0.648438 22.7279 0.785117 22.9712 1.02841C23.2145 1.2717 23.3511 1.60167 23.3511 1.94573V11.2084C23.3511 11.2945 23.317 11.3769 23.2561 11.4378C23.1953 11.4986 23.1128 11.5328 23.0268 11.5328C22.9408 11.5328 22.8583 11.4986 22.7975 11.4378C22.7367 11.3769 22.7025 11.2945 22.7025 11.2084V1.94573C22.7025 1.7737 22.6342 1.60872 22.5125 1.48707C22.3909 1.36543 22.2259 1.29709 22.0538 1.29709H1.94573C1.7737 1.29709 1.60872 1.36543 1.48707 1.48707C1.36543 1.60872 1.29709 1.7737 1.29709 1.94573V22.0538C1.29709 22.2259 1.36543 22.3909 1.48707 22.5125C1.60872 22.6342 1.7737 22.7025 1.94573 22.7025H22.0538C22.2259 22.7025 22.3909 22.6342 22.5125 22.5125C22.6342 22.3909 22.7025 22.2259 22.7025 22.0538V19.9263C22.7025 19.8403 22.7367 19.7578 22.7975 19.6969C22.8583 19.6361 22.9408 19.602 23.0268 19.602C23.1128 19.602 23.1953 19.6361 23.2561 19.6969C23.317 19.7578 23.3511 19.8403 23.3511 19.9263V22.0538C23.3511 22.3979 23.2145 22.7279 22.9712 22.9712C22.7279 23.2145 22.3979 23.3511 22.0538 23.3511Z" fill="white"/>
<path d="M23.0275 17.983C22.9414 17.983 22.8589 17.9488 22.7981 17.888C22.7373 17.8272 22.7031 17.7447 22.7031 17.6586V16.6954C22.7031 16.6094 22.7373 16.5269 22.7981 16.4661C22.8589 16.4053 22.9414 16.3711 23.0275 16.3711C23.1135 16.3711 23.196 16.4053 23.2568 16.4661C23.3176 16.5269 23.3518 16.6094 23.3518 16.6954V17.6586C23.3518 17.7447 23.3176 17.8272 23.2568 17.888C23.196 17.9488 23.1135 17.983 23.0275 17.983Z" fill="white"/>
<path d="M23.0268 6.48458H0.972762C0.886746 6.48458 0.804252 6.45041 0.74343 6.38959C0.682607 6.32877 0.648438 6.24627 0.648438 6.16026C0.648438 6.07424 0.682607 5.99175 0.74343 5.93093C0.804252 5.87011 0.886746 5.83594 0.972762 5.83594H23.0268C23.1128 5.83594 23.1953 5.87011 23.2561 5.93093C23.317 5.99175 23.3511 6.07424 23.3511 6.16026C23.3511 6.24627 23.317 6.32877 23.2561 6.38959C23.1953 6.45041 23.1128 6.48458 23.0268 6.48458Z" fill="white"/>
<path d="M21.0066 3.88302H20.128C20.042 3.88302 19.9595 3.84885 19.8987 3.78803C19.8379 3.72721 19.8037 3.64472 19.8037 3.5587C19.8037 3.47268 19.8379 3.39019 19.8987 3.32937C19.9595 3.26854 20.042 3.23438 20.128 3.23438H21.0066C21.0927 3.23438 21.1751 3.26854 21.236 3.32937C21.2968 3.39019 21.331 3.47268 21.331 3.5587C21.331 3.64472 21.2968 3.72721 21.236 3.78803C21.1751 3.84885 21.0927 3.88302 21.0066 3.88302Z" fill="white"/>
<path d="M18.0877 3.88302H17.2091C17.1231 3.88302 17.0406 3.84885 16.9798 3.78803C16.9189 3.72721 16.8848 3.64472 16.8848 3.5587C16.8848 3.47268 16.9189 3.39019 16.9798 3.32937C17.0406 3.26854 17.1231 3.23438 17.2091 3.23438H18.0877C18.1737 3.23438 18.2562 3.26854 18.317 3.32937C18.3778 3.39019 18.412 3.47268 18.412 3.5587C18.412 3.64472 18.3778 3.72721 18.317 3.78803C18.2562 3.84885 18.1737 3.88302 18.0877 3.88302Z" fill="white"/>
<path d="M15.1692 3.88302H14.2906C14.2046 3.88302 14.1221 3.84885 14.0613 3.78803C14.0005 3.72721 13.9663 3.64472 13.9663 3.5587C13.9663 3.47268 14.0005 3.39019 14.0613 3.32937C14.1221 3.26854 14.2046 3.23438 14.2906 3.23438H15.1692C15.2553 3.23438 15.3377 3.26854 15.3986 3.32937C15.4594 3.39019 15.4936 3.47268 15.4936 3.5587C15.4936 3.64472 15.4594 3.72721 15.3986 3.78803C15.3377 3.84885 15.2553 3.88302 15.1692 3.88302Z" fill="white"/>
<path d="M11.9681 3.85959H3.07481C2.9888 3.85959 2.9063 3.82542 2.84548 3.76459C2.78466 3.70377 2.75049 3.62128 2.75049 3.53526C2.75049 3.44925 2.78466 3.36675 2.84548 3.30593C2.9063 3.24511 2.9888 3.21094 3.07481 3.21094H11.9681C12.0541 3.21094 12.1366 3.24511 12.1974 3.30593C12.2583 3.36675 12.2924 3.44925 12.2924 3.53526C12.2924 3.62128 12.2583 3.70377 12.1974 3.76459C12.1366 3.82542 12.0541 3.85959 11.9681 3.85959Z" fill="white"/>
<path d="M9.72954 14.8296H3.89171C3.80569 14.8296 3.7232 14.7954 3.66238 14.7346C3.60155 14.6738 3.56738 14.5913 3.56738 14.5053V8.75401C3.56738 8.668 3.60155 8.5855 3.66238 8.52468C3.7232 8.46386 3.80569 8.42969 3.89171 8.42969H9.72954C9.81556 8.42969 9.89805 8.46386 9.95888 8.52468C10.0197 8.5855 10.0539 8.668 10.0539 8.75401V14.5053C10.0539 14.5913 10.0197 14.6738 9.95888 14.7346C9.89805 14.7954 9.81556 14.8296 9.72954 14.8296ZM4.21603 14.1809H9.40522V9.07834H4.21603V14.1809Z" fill="white"/>
<path d="M20.1082 9.13692H12.0001C11.9141 9.13692 11.8316 9.10275 11.7708 9.04193C11.71 8.98111 11.6758 8.89862 11.6758 8.8126C11.6758 8.72659 11.71 8.64409 11.7708 8.58327C11.8316 8.52245 11.9141 8.48828 12.0001 8.48828H20.1082C20.1942 8.48828 20.2767 8.52245 20.3375 8.58327C20.3984 8.64409 20.4325 8.72659 20.4325 8.8126C20.4325 8.89862 20.3984 8.98111 20.3375 9.04193C20.2767 9.10275 20.1942 9.13692 20.1082 9.13692Z" fill="white"/>
<path d="M20.1082 12.0119H12.0001C11.9141 12.0119 11.8316 11.9778 11.7708 11.9169C11.71 11.8561 11.6758 11.7736 11.6758 11.6876C11.6758 11.6016 11.71 11.5191 11.7708 11.4583C11.8316 11.3975 11.9141 11.3633 12.0001 11.3633H20.1082C20.1942 11.3633 20.2767 11.3975 20.3375 11.4583C20.3984 11.5191 20.4325 11.6016 20.4325 11.6876C20.4325 11.7736 20.3984 11.8561 20.3375 11.9169C20.2767 11.9778 20.1942 12.0119 20.1082 12.0119Z" fill="white"/>
<path d="M20.1082 14.8908H12.0001C11.9141 14.8908 11.8316 14.8567 11.7708 14.7959C11.71 14.735 11.6758 14.6525 11.6758 14.5665C11.6758 14.4805 11.71 14.398 11.7708 14.3372C11.8316 14.2764 11.9141 14.2422 12.0001 14.2422H20.1082C20.1942 14.2422 20.2767 14.2764 20.3375 14.3372C20.3984 14.398 20.4325 14.4805 20.4325 14.5665C20.4325 14.6525 20.3984 14.735 20.3375 14.7959C20.2767 14.8567 20.1942 14.8908 20.1082 14.8908Z" fill="white"/>
<path d="M20.1084 17.7658H4.0543C3.96829 17.7658 3.8858 17.7317 3.82497 17.6708C3.76415 17.61 3.72998 17.5275 3.72998 17.4415C3.72998 17.3555 3.76415 17.273 3.82497 17.2122C3.8858 17.1514 3.96829 17.1172 4.0543 17.1172H20.1084C20.1944 17.1172 20.2769 17.1514 20.3377 17.2122C20.3985 17.273 20.4327 17.3555 20.4327 17.4415C20.4327 17.5275 20.3985 17.61 20.3377 17.6708C20.2769 17.7317 20.1944 17.7658 20.1084 17.7658Z" fill="white"/>
<path d="M20.1084 20.6447H4.0543C3.96829 20.6447 3.8858 20.6106 3.82497 20.5498C3.76415 20.4889 3.72998 20.4064 3.72998 20.3204C3.72998 20.2344 3.76415 20.1519 3.82497 20.0911C3.8858 20.0303 3.96829 19.9961 4.0543 19.9961H20.1084C20.1944 19.9961 20.2769 20.0303 20.3377 20.0911C20.3985 20.1519 20.4327 20.2344 20.4327 20.3204C20.4327 20.4064 20.3985 20.4889 20.3377 20.5498C20.2769 20.6106 20.1944 20.6447 20.1084 20.6447Z" fill="white"/>
</svg>
