<svg width="32" height="23" viewBox="0 0 32 23" fill="none" xmlns="http://www.w3.org/2000/svg">
<path d="M25.9555 5.84082H6.04459C5.89531 5.84082 5.77441 5.96171 5.77441 6.111V17.4888C5.77441 17.6381 5.89531 17.759 6.04459 17.759H25.9555C26.1047 17.759 26.2256 17.6381 26.2256 17.4888V6.111C26.2256 5.96172 26.1047 5.84082 25.9555 5.84082ZM25.6853 17.2186H6.31476V6.38116H25.6926V17.2186H25.6853Z" fill="white"/>
<path d="M11.7335 10.6477C12.6651 10.6477 13.426 9.88674 13.426 8.95518C13.426 8.02361 12.6651 7.2627 11.7335 7.2627C10.8019 7.2627 10.041 8.02361 10.041 8.95518C10.041 9.88674 10.8019 10.6477 11.7335 10.6477ZM11.7335 7.80318C12.3735 7.80318 12.8854 8.32226 12.8854 8.95513C12.8854 9.588 12.3735 10.1071 11.7335 10.1071C11.0935 10.1071 10.5814 9.59513 10.5814 8.95513C10.5814 8.31513 11.0935 7.80318 11.7335 7.80318Z" fill="white"/>
<path d="M15.7295 14.6446C15.7295 15.5762 16.4904 16.3371 17.422 16.3371C18.3536 16.3371 19.1145 15.5762 19.1145 14.6446C19.1145 13.7131 18.3535 12.9521 17.422 12.9521C16.4904 12.9521 15.7295 13.7131 15.7295 14.6446ZM18.574 14.6446C18.574 15.2846 18.0549 15.7966 17.422 15.7966C16.789 15.7966 16.2699 15.2846 16.2699 14.6446C16.2699 14.0046 16.789 13.4927 17.4218 13.4927C18.0549 13.4927 18.574 14.0046 18.574 14.6446Z" fill="white"/>
<path d="M11.541 14.8365C11.5909 14.8863 11.6619 14.9147 11.733 14.9147C11.8041 14.9147 11.8682 14.8863 11.925 14.8365L17.6141 9.14735C17.7207 9.04074 17.7207 8.87717 17.6141 8.77038C17.5075 8.66378 17.3439 8.66378 17.2371 8.77038L11.548 14.4595C11.4416 14.5592 11.4416 14.7299 11.541 14.8365H11.541Z" fill="white"/>
<path d="M23.1105 8.51424C23.2598 8.51424 23.3807 8.39335 23.3807 8.24406V6.82194C23.3807 6.67265 23.2598 6.55176 23.1105 6.55176C22.9612 6.55176 22.8403 6.67265 22.8403 6.82194V8.24406C22.8403 8.39335 22.9612 8.51424 23.1105 8.51424Z" fill="white"/>
<path d="M23.1105 11.359C23.2598 11.359 23.3807 11.2381 23.3807 11.0888V9.66667C23.3807 9.51738 23.2598 9.39648 23.1105 9.39648C22.9612 9.39648 22.8403 9.51738 22.8403 9.66667V11.0888C22.8403 11.2381 22.9612 11.359 23.1105 11.359Z" fill="white"/>
<path d="M23.1105 14.2037C23.2598 14.2037 23.3807 14.0828 23.3807 13.9335V12.5114C23.3807 12.3621 23.2598 12.2412 23.1105 12.2412C22.9612 12.2412 22.8403 12.3621 22.8403 12.5114V13.9335C22.8403 14.0828 22.9612 14.2037 23.1105 14.2037Z" fill="white"/>
<path d="M23.1105 17.0484C23.2598 17.0484 23.3807 16.9275 23.3807 16.7782V15.3561C23.3807 15.2068 23.2598 15.0859 23.1105 15.0859C22.9612 15.0859 22.8403 15.2068 22.8403 15.3561V16.7782C22.8403 16.9275 22.9612 17.0484 23.1105 17.0484Z" fill="white"/>
</svg>
