<svg width="20" height="12" viewBox="0 0 20 12" fill="none" xmlns="http://www.w3.org/2000/svg">
<path d="M1.21798 11.6465H6.11955C6.38644 11.6465 6.63344 11.5515 6.83438 11.3909C7.03533 11.5515 7.28232 11.6465 7.54921 11.6465H12.451C12.7179 11.6465 12.9649 11.5515 13.1658 11.3909C13.3668 11.5515 13.6138 11.6465 13.8806 11.6465H18.7822C19.4537 11.6465 20 11.0469 20 10.31V7.80168C20 6.67514 19.4254 5.69653 18.5655 5.21375C18.9822 4.66225 19.2331 3.9549 19.2331 3.18417C19.2331 1.42841 17.9314 0 16.3314 0C14.7315 0 13.4298 1.42841 13.4298 3.18417C13.4298 3.9549 13.6807 4.66247 14.0974 5.21375C13.7257 5.42271 13.4075 5.72436 13.1658 6.09024C12.9241 5.72414 12.6059 5.42249 12.234 5.21375C12.6508 4.66247 12.9017 3.9549 12.9017 3.18417C12.9017 1.42841 11.6 0 10 0C8.40002 0 7.09835 1.42841 7.09835 3.18417C7.09835 3.9549 7.34943 4.66247 7.76616 5.21397C7.39431 5.42271 7.07611 5.72436 6.83438 6.09045C6.59266 5.72436 6.27446 5.42271 5.90261 5.21375C6.31933 4.66247 6.57022 3.9549 6.57022 3.18439C6.57022 1.42841 5.26855 0 3.66857 0C2.06879 0 0.767115 1.42841 0.767115 3.18439C0.767115 3.9549 1.01801 4.66247 1.43473 5.21397C0.574751 5.69674 0 6.67556 0 7.8019V10.31C0 11.0469 0.546462 11.6465 1.21798 11.6465ZM16.3316 1.10407C17.3767 1.10407 18.2272 2.03707 18.2272 3.18417C18.2272 4.33106 17.3767 5.26428 16.3316 5.26428C15.2863 5.26428 14.4361 4.33127 14.4361 3.18417C14.4359 2.03707 15.2863 1.10407 16.3316 1.10407ZM15.0247 6.0258C15.4178 6.24439 15.8616 6.36834 16.3314 6.36834C16.8014 6.36834 17.2453 6.24439 17.6382 6.0258C18.4199 6.17523 18.9941 6.91449 18.9941 7.80168V10.31C18.9941 10.4382 18.8991 10.5425 18.7822 10.5425H13.8806C13.764 10.5425 13.669 10.4382 13.669 10.31V7.80168C13.6688 6.9147 14.2431 6.17523 15.0247 6.0258ZM10.0002 1.10407C11.0453 1.10407 11.8957 2.03707 11.8957 3.18417C11.8957 4.33106 11.0453 5.26428 10.0002 5.26428C8.95487 5.26428 8.10465 4.33127 8.10465 3.18417C8.10465 2.03707 8.95487 1.10407 10.0002 1.10407ZM8.69345 6.0258C9.08637 6.24439 9.53021 6.36834 10.0002 6.36834C10.4702 6.36834 10.9138 6.24439 11.3069 6.0258C12.0885 6.17523 12.6629 6.91449 12.6629 7.80168V10.31C12.6629 10.4382 12.5678 10.5425 12.451 10.5425H7.54941C7.43255 10.5425 7.33753 10.4382 7.33753 10.31V7.80168C7.33753 6.9147 7.91189 6.17523 8.69345 6.0258ZM3.66877 1.10407C4.71389 1.10407 5.56431 2.03707 5.56431 3.18417C5.56431 4.33106 4.71389 5.26428 3.66877 5.26428C2.62364 5.26428 1.77322 4.33106 1.77322 3.18417C1.77322 2.03707 2.62364 1.10407 3.66877 1.10407ZM1.00611 7.80168C1.00611 6.9147 1.58047 6.17523 2.36202 6.0258C2.75514 6.24439 3.19878 6.36834 3.66877 6.36834C4.13875 6.36834 4.5824 6.24439 4.97552 6.0258C5.75726 6.17523 6.33143 6.91449 6.33143 7.80168V10.31C6.33143 10.4382 6.23642 10.5425 6.11955 10.5425H1.21798C1.10112 10.5425 1.00611 10.4382 1.00611 10.31V7.80168Z" fill="white"/>
</svg>
