<svg width="20" height="20" viewBox="0 0 20 20" fill="none" xmlns="http://www.w3.org/2000/svg">
<path d="M7.70828 6.66672H1.45828C0.654144 6.66672 0 6.01257 0 5.20828V1.45828C0 0.654144 0.654144 0 1.45828 0H7.70828C8.51257 0 9.16672 0.654144 9.16672 1.45828V5.20828C9.16672 6.01257 8.51257 6.66672 7.70828 6.66672ZM1.45828 1.25C1.34338 1.25 1.25 1.34338 1.25 1.45828V5.20828C1.25 5.32333 1.34338 5.41672 1.45828 5.41672H7.70828C7.82333 5.41672 7.91672 5.32333 7.91672 5.20828V1.45828C7.91672 1.34338 7.82333 1.25 7.70828 1.25H1.45828Z" fill="white"/>
<path d="M7.70828 19.9987H1.45828C0.654144 19.9987 0 19.3446 0 18.5405V9.79047C0 8.98618 0.654144 8.33203 1.45828 8.33203H7.70828C8.51257 8.33203 9.16672 8.98618 9.16672 9.79047V18.5405C9.16672 19.3446 8.51257 19.9987 7.70828 19.9987ZM1.45828 9.58203C1.34338 9.58203 1.25 9.67542 1.25 9.79047V18.5405C1.25 18.6554 1.34338 18.7487 1.45828 18.7487H7.70828C7.82333 18.7487 7.91672 18.6554 7.91672 18.5405V9.79047C7.91672 9.67542 7.82333 9.58203 7.70828 9.58203H1.45828Z" fill="white"/>
<path d="M18.5414 19.9987H12.2914C11.4872 19.9987 10.833 19.3446 10.833 18.5405V14.7905C10.833 13.9862 11.4872 13.332 12.2914 13.332H18.5414C19.3456 13.332 19.9997 13.9862 19.9997 14.7905V18.5405C19.9997 19.3446 19.3456 19.9987 18.5414 19.9987ZM12.2914 14.582C12.1764 14.582 12.083 14.6754 12.083 14.7905V18.5405C12.083 18.6554 12.1764 18.7487 12.2914 18.7487H18.5414C18.6563 18.7487 18.7497 18.6554 18.7497 18.5405V14.7905C18.7497 14.6754 18.6563 14.582 18.5414 14.582H12.2914Z" fill="white"/>
<path d="M18.5419 11.6667H12.2919C11.4876 11.6667 10.8335 11.0126 10.8335 10.2083V1.45828C10.8335 0.654144 11.4876 0 12.2919 0H18.5419C19.3461 0 20.0002 0.654144 20.0002 1.45828V10.2083C20.0002 11.0126 19.3461 11.6667 18.5419 11.6667ZM12.2919 1.25C12.1769 1.25 12.0835 1.34338 12.0835 1.45828V10.2083C12.0835 10.3233 12.1769 10.4167 12.2919 10.4167H18.5419C18.6568 10.4167 18.7502 10.3233 18.7502 10.2083V1.45828C18.7502 1.34338 18.6568 1.25 18.5419 1.25H12.2919Z" fill="white"/>
</svg>
