<svg width="20" height="14" viewBox="0 0 20 14" fill="none" xmlns="http://www.w3.org/2000/svg">
<path d="M10.0007 4.09094C8.49615 4.09094 7.27344 5.31365 7.27344 6.81821C7.27344 8.32277 8.49615 9.54548 10.0007 9.54548C11.5053 9.54548 12.728 8.32277 12.728 6.81821C12.728 5.31365 11.5052 4.09094 10.0007 4.09094Z" fill="#8D8D8D"/>
<path d="M10 0C5.45455 0 1.57274 2.82725 0 6.81819C1.57274 10.8091 5.45455 13.6364 10 13.6364C14.55 13.6364 18.4273 10.8091 20 6.81819C18.4273 2.82725 14.55 0 10 0ZM10 11.3636C7.49093 11.3636 5.45455 9.32724 5.45455 6.81814C5.45455 4.30905 7.49093 2.27271 10 2.27271C12.5091 2.27271 14.5455 4.30909 14.5455 6.81819C14.5455 9.32728 12.5091 11.3636 10 11.3636Z" fill="#8D8D8D"/>
</svg>
