<svg width="20" height="20" viewBox="0 0 20 20" fill="none" xmlns="http://www.w3.org/2000/svg">
<path d="M19.5274 9.35716C19.228 9.08097 18.8207 8.91038 18.41 8.88902C17.9435 8.86491 17.5065 9.03123 17.181 9.35685L14.9572 11.5573C14.9133 11.4812 14.8631 11.4093 14.8068 11.3426C14.5332 11.0178 14.1331 10.8389 13.6804 10.8389H10.5673C9.98026 10.8389 9.4076 10.7628 8.8653 10.6128C7.45142 10.2217 6.10071 10.5074 4.9589 11.4394C4.49457 11.8184 4.15583 12.2307 3.94159 12.5313L3.38343 11.9896C3.31003 11.9183 3.21054 11.8779 3.10816 11.8779C3.10724 11.8779 3.10648 11.8779 3.10556 11.8779C2.99952 11.8787 2.89698 11.9228 2.82343 11.9991L0.109957 14.816C0.0373256 14.8914 -0.00219466 14.9927 9.41544e-05 15.0974C0.00238297 15.2022 0.0461757 15.3017 0.122012 15.3739L4.7114 19.7438C4.78754 19.8163 4.8852 19.8525 4.9827 19.8525C5.08509 19.8525 5.18747 19.8126 5.26453 19.7336L7.95267 16.9757C8.02607 16.9003 8.06681 16.7973 8.06482 16.6921C8.06284 16.5883 8.01935 16.4882 7.94489 16.4159L7.71082 16.1888L8.24656 16.1286C8.57065 16.0909 8.90024 16.0718 9.22648 16.0718H13.963C14.7326 16.0718 15.3863 15.9035 15.906 15.5715C15.9103 15.5687 15.9146 15.5658 15.9188 15.5629C16.105 15.4335 16.2739 15.2802 16.4207 15.1073L19.6125 11.3522C20.1588 10.7097 20.1246 9.90785 19.5274 9.35716ZM4.97248 18.906L0.951175 15.0769L3.11747 12.8279L7.11527 16.7075L4.97248 18.906ZM19.013 10.8426L15.8212 14.5978C15.7199 14.717 15.6037 14.8229 15.4757 14.9126C15.0855 15.1596 14.5767 15.285 13.963 15.285H9.22632C8.87003 15.285 8.50977 15.3059 8.15714 15.347L6.97947 15.4791L4.51365 13.0863C4.685 12.8322 5.0001 12.4216 5.45649 12.049C6.40528 11.2744 7.48163 11.0463 8.65549 11.3712C9.26615 11.5401 9.90931 11.6258 10.5673 11.6258H13.6804C14.2394 11.6258 14.3887 12.1101 14.3887 12.3962C14.3887 12.6053 14.3215 12.8043 14.2045 12.9422C14.0776 13.0916 13.897 13.1673 13.668 13.1673H10.958C10.7408 13.1673 10.5647 13.3435 10.5647 13.5608C10.5647 13.7781 10.7408 13.9542 10.958 13.9542H13.668C14.1255 13.9542 14.5289 13.7756 14.8042 13.4515C15.0332 13.1821 15.1638 12.8278 15.1748 12.449L17.736 9.91471C18.1021 9.54865 18.674 9.64051 18.9939 9.93562C19.1593 10.0882 19.3818 10.4088 19.013 10.8426Z" fill="white"/>
<path d="M9.7311 13.456C9.68151 13.2444 9.46987 13.1133 9.25823 13.1628C9.04675 13.2124 8.91537 13.424 8.96511 13.6356L8.96878 13.6517C9.01135 13.8329 9.17294 13.9553 9.35147 13.9553C9.38122 13.9553 9.41143 13.952 9.44164 13.9449C9.65328 13.8953 9.78451 13.6836 9.73492 13.4721L9.7311 13.456Z" fill="white"/>
<path d="M2.65915 8.45703H6.49277C6.70151 8.45703 6.89469 8.38928 7.05185 8.27484C7.20902 8.38928 7.40219 8.45703 7.61093 8.45703H11.4447C11.6534 8.45703 11.8466 8.38928 12.0038 8.27484C12.161 8.38928 12.3541 8.45703 12.5629 8.45703H16.3965C16.9217 8.45703 17.3489 8.02963 17.3489 7.50443V5.71671C17.3489 4.91379 16.8996 4.21631 16.227 3.87222C16.5529 3.47916 16.7491 2.97501 16.7491 2.42569C16.7491 1.17432 15.7311 0.15625 14.4797 0.15625C13.2283 0.15625 12.2102 1.17432 12.2102 2.42569C12.2102 2.97501 12.4065 3.47931 12.7324 3.87222C12.4417 4.02115 12.1928 4.23615 12.0038 4.49692C11.8147 4.23599 11.5659 4.021 11.275 3.87222C11.601 3.47931 11.7972 2.97501 11.7972 2.42569C11.7972 1.17432 10.7791 0.15625 9.52774 0.15625C8.27637 0.15625 7.2583 1.17432 7.2583 2.42569C7.2583 2.97501 7.45468 3.47931 7.78061 3.87238C7.48978 4.02115 7.24091 4.23615 7.05185 4.49707C6.86279 4.23615 6.61392 4.02115 6.32309 3.87222C6.64902 3.47931 6.84525 2.97501 6.84525 2.42584C6.84525 1.17432 5.82718 0.15625 4.57581 0.15625C3.32459 0.15625 2.30652 1.17432 2.30652 2.42584C2.30652 2.97501 2.50275 3.47931 2.82867 3.87238C2.15607 4.21646 1.70654 4.91409 1.70654 5.71686V7.50443C1.70654 8.02963 2.13394 8.45703 2.65915 8.45703ZM14.4798 0.943146C15.2972 0.943146 15.9624 1.60812 15.9624 2.42569C15.9624 3.2431 15.2972 3.90823 14.4798 3.90823C13.6623 3.90823 12.9973 3.24326 12.9973 2.42569C12.9971 1.60812 13.6623 0.943146 14.4798 0.943146ZM13.4576 4.45099C13.7651 4.60678 14.1122 4.69513 14.4797 4.69513C14.8473 4.69513 15.1944 4.60678 15.5017 4.45099C16.1131 4.5575 16.5622 5.08438 16.5622 5.71671V7.50443C16.5622 7.59583 16.4879 7.67014 16.3965 7.67014H12.5629C12.4716 7.67014 12.3973 7.59583 12.3973 7.50443V5.71671C12.3972 5.08453 12.8464 4.5575 13.4576 4.45099ZM9.5279 0.943146C10.3453 0.943146 11.0104 1.60812 11.0104 2.42569C11.0104 3.2431 10.3453 3.90823 9.5279 3.90823C8.71033 3.90823 8.04535 3.24326 8.04535 2.42569C8.04535 1.60812 8.71033 0.943146 9.5279 0.943146ZM8.50586 4.45099C8.81317 4.60678 9.16031 4.69513 9.5279 4.69513C9.89548 4.69513 10.2425 4.60678 10.5499 4.45099C11.1612 4.5575 11.6104 5.08438 11.6104 5.71671V7.50443C11.6104 7.59583 11.5361 7.67014 11.4447 7.67014H7.61109C7.51969 7.67014 7.44538 7.59583 7.44538 7.50443V5.71671C7.44538 5.08453 7.89459 4.5575 8.50586 4.45099ZM4.57596 0.943146C5.39337 0.943146 6.0585 1.60812 6.0585 2.42569C6.0585 3.2431 5.39337 3.90823 4.57596 3.90823C3.75855 3.90823 3.09341 3.2431 3.09341 2.42569C3.09341 1.60812 3.75855 0.943146 4.57596 0.943146ZM2.49344 5.71671C2.49344 5.08453 2.94266 4.5575 3.55393 4.45099C3.86139 4.60678 4.20837 4.69513 4.57596 4.69513C4.94354 4.69513 5.29053 4.60678 5.59799 4.45099C6.20941 4.5575 6.65848 5.08438 6.65848 5.71671V7.50443C6.65848 7.59583 6.58417 7.67014 6.49277 7.67014H2.65915C2.56775 7.67014 2.49344 7.59583 2.49344 7.50443V5.71671Z" fill="white"/>
</svg>
