<svg width="20" height="20" viewBox="0 0 20 20" fill="none" xmlns="http://www.w3.org/2000/svg">
<path d="M18.4733 8.74868H17.5003C17.4448 8.54804 17.3256 8.3709 17.1606 8.24405C16.9955 8.11719 16.7937 8.04752 16.5855 8.04555H15.5469V5.50555C15.548 5.45804 15.5366 5.41107 15.5136 5.36945C15.4906 5.32784 15.457 5.29309 15.4162 5.26876L8.08895 1.03665C8.04765 1.01264 8.00073 1 7.95297 1C7.9052 1 7.85829 1.01264 7.81699 1.03665L0.487501 5.26876C0.446029 5.2928 0.411627 5.32734 0.387761 5.36892C0.363896 5.41049 0.351411 5.45762 0.351564 5.50555V13.9698C0.351565 14.0178 0.3642 14.065 0.388199 14.1065C0.412198 14.1481 0.446716 14.1826 0.488283 14.2066L7.81852 18.4387C7.86008 18.4627 7.90724 18.4754 7.95524 18.4754C8.00447 18.4754 8.0529 18.4628 8.09586 18.4387L11.9531 16.2138V17.8222C11.9527 17.9753 11.9827 18.127 12.0413 18.2685C12.0999 18.4099 12.186 18.5384 12.2946 18.6463C12.4032 18.7543 12.5322 18.8396 12.674 18.8974C12.8158 18.9552 12.9676 18.9843 13.1207 18.9831H18.4733C18.6268 18.9845 18.7791 18.9555 18.9214 18.8979C19.0637 18.8402 19.1931 18.755 19.3024 18.6471C19.4116 18.5392 19.4984 18.4108 19.5578 18.2692C19.6172 18.1276 19.648 17.9757 19.6484 17.8222V9.92766C19.6483 9.6157 19.5245 9.3165 19.3043 9.09555C19.084 8.8746 18.7852 8.74988 18.4733 8.74868ZM16.5953 8.59243C16.7005 8.59243 16.8015 8.63425 16.8759 8.70868C16.9504 8.78312 16.9922 8.88407 16.9922 8.98934V9.01583C16.9922 9.1211 16.9504 9.22205 16.8759 9.29649C16.8015 9.37092 16.7005 9.41274 16.5953 9.41274H15.0063C14.901 9.41274 14.8001 9.37092 14.7256 9.29649C14.6512 9.22205 14.6094 9.1211 14.6094 9.01583V8.98934C14.6094 8.88407 14.6512 8.78312 14.7256 8.70868C14.8001 8.63425 14.901 8.59243 15.0063 8.59243H16.5953ZM7.95524 1.58919L11.0011 3.3477L4.2182 7.2638L1.17238 5.50528L7.95524 1.58919ZM7.69531 17.7283L0.898439 13.8119V5.97856L7.69531 9.89493V17.7283ZM7.95524 9.42134L4.76508 7.5795L11.548 3.66344L14.7383 5.50528L7.95524 9.42134ZM11.9531 9.92766V15.5824L8.24219 17.7283V9.89493L15 5.97856V8.04555H15.0085C14.8003 8.04751 14.5985 8.11718 14.4334 8.24404C14.2684 8.3709 14.1492 8.54804 14.0937 8.74868H13.1207C12.8096 8.75019 12.5117 8.87525 12.2928 9.09635C12.0738 9.31745 11.9516 9.61649 11.9531 9.92766ZM19.1016 17.8222C19.1012 17.9039 19.0846 17.9848 19.0527 18.06C19.0208 18.1353 18.9743 18.2035 18.9158 18.2606C18.8574 18.3177 18.7881 18.3627 18.7122 18.3928C18.6362 18.4229 18.555 18.4377 18.4733 18.4362H13.1207C13.0394 18.4375 12.9586 18.4227 12.8832 18.3924C12.8077 18.3621 12.739 18.317 12.6812 18.2598C12.6233 18.2026 12.5775 18.1344 12.5464 18.0593C12.5153 17.9841 12.4995 17.9035 12.5 17.8222V9.92766C12.4992 9.84538 12.5146 9.76374 12.5454 9.68742C12.5761 9.6111 12.6216 9.54159 12.6793 9.48288C12.7369 9.42416 12.8056 9.3774 12.8814 9.34525C12.9571 9.31311 13.0385 9.29622 13.1207 9.29555H14.1044C14.1631 9.4891 14.2829 9.65843 14.4458 9.77816C14.6088 9.89788 14.8062 9.96155 15.0085 9.95962H16.5855C16.7878 9.96155 16.9852 9.89789 17.1482 9.77816C17.3112 9.65843 17.4309 9.4891 17.4896 9.29555H18.4733C18.6402 9.29661 18.8 9.36366 18.9177 9.48209C19.0354 9.60051 19.1015 9.76069 19.1016 9.92766V17.8222Z" fill="white"/>
<path d="M13.4355 12.6953H13.7217C13.7942 12.6953 13.8638 12.6665 13.9151 12.6152C13.9664 12.5639 13.9952 12.4944 13.9952 12.4219C13.9952 12.3494 13.9664 12.2798 13.9151 12.2285C13.8638 12.1772 13.7942 12.1484 13.7217 12.1484H13.7109V11.4062H14.4651C14.4823 11.4612 14.517 11.5091 14.564 11.5424C14.6109 11.5758 14.6675 11.5928 14.7251 11.5909C14.7977 11.5911 14.8674 11.5625 14.919 11.5113C14.9705 11.4602 14.9997 11.3907 15 11.3181V11.1341C14.9994 11.0611 14.97 10.9914 14.9183 10.9399C14.8665 10.8885 14.7966 10.8595 14.7236 10.8594H13.4355C13.3996 10.8596 13.3642 10.8668 13.3311 10.8807C13.298 10.8946 13.268 10.9149 13.2428 10.9405C13.2176 10.966 13.1977 10.9962 13.1842 11.0294C13.1707 11.0627 13.1638 11.0982 13.1641 11.1341V12.4222C13.1639 12.458 13.1707 12.4935 13.1843 12.5266C13.1978 12.5597 13.2178 12.5898 13.243 12.6152C13.2682 12.6406 13.2982 12.6607 13.3313 12.6745C13.3643 12.6882 13.3997 12.6953 13.4355 12.6953Z" fill="white"/>
<path d="M13.4375 15.1953H14.7266C14.7991 15.1953 14.8686 15.1665 14.9199 15.1152C14.9712 15.0639 15 14.9944 15 14.9219V13.6328C15 13.5603 14.9712 13.4907 14.9199 13.4395C14.8686 13.3882 14.7991 13.3594 14.7266 13.3594H13.4375C13.365 13.3594 13.2954 13.3882 13.2442 13.4395C13.1929 13.4907 13.1641 13.5603 13.1641 13.6328V14.9219C13.1641 14.9944 13.1929 15.0639 13.2442 15.1152C13.2954 15.1665 13.365 15.1953 13.4375 15.1953ZM13.7109 13.9062H14.4531V14.6484H13.7109V13.9062Z" fill="white"/>
<path d="M13.7218 17.1484H13.711V16.4063H14.4504C14.4518 16.4782 14.4813 16.5467 14.5327 16.597C14.584 16.6474 14.653 16.6757 14.7249 16.6757C14.7969 16.6758 14.8659 16.6477 14.9174 16.5974C14.9688 16.5471 14.9985 16.4787 15 16.4068V16.1433C14.9997 16.0694 14.9708 15.9985 14.9192 15.9455C14.8676 15.8925 14.7975 15.8616 14.7236 15.8594H13.4355C13.3621 15.8618 13.2927 15.8929 13.2419 15.946C13.1912 15.9991 13.1632 16.0699 13.1641 16.1433V17.4314C13.164 17.4667 13.1711 17.5017 13.1848 17.5342C13.1985 17.5667 13.2187 17.5962 13.244 17.6208C13.2693 17.6454 13.2993 17.6647 13.3322 17.6775C13.3651 17.6903 13.4002 17.6963 13.4355 17.6953H13.7218C13.7943 17.6953 13.8638 17.6665 13.9151 17.6152C13.9664 17.564 13.9952 17.4944 13.9952 17.4219C13.9952 17.3494 13.9664 17.2798 13.9151 17.2285C13.8638 17.1773 13.7943 17.1484 13.7218 17.1484Z" fill="white"/>
<path d="M15.353 11.1974L14.5522 11.9982L14.3086 11.7545C14.2832 11.7292 14.2531 11.709 14.2199 11.6953C14.1867 11.6815 14.1512 11.6745 14.1152 11.6745C14.0793 11.6745 14.0438 11.6815 14.0106 11.6953C13.9774 11.709 13.9473 11.7292 13.9219 11.7545C13.8965 11.7799 13.8764 11.8101 13.8626 11.8433C13.8489 11.8764 13.8418 11.912 13.8418 11.9479C13.8418 11.9838 13.8489 12.0194 13.8626 12.0526C13.8764 12.0857 13.8965 12.1159 13.9219 12.1413L14.3589 12.5782C14.3843 12.6036 14.4144 12.6238 14.4476 12.6375C14.4808 12.6512 14.5163 12.6583 14.5522 12.6583C14.5882 12.6583 14.6237 12.6512 14.6569 12.6375C14.6901 12.6238 14.7202 12.6036 14.7456 12.5782L15.7398 11.584C15.7911 11.5327 15.8199 11.4632 15.8199 11.3906C15.8199 11.3181 15.7911 11.2486 15.7398 11.1973C15.6885 11.146 15.619 11.1172 15.5465 11.1172C15.4739 11.1172 15.4044 11.146 15.3531 11.1973L15.353 11.1974Z" fill="white"/>
<path d="M15.353 16.2443L14.5522 17.0451L14.3086 16.8014C14.2832 16.776 14.2531 16.7559 14.2199 16.7421C14.1867 16.7284 14.1512 16.7213 14.1152 16.7213C14.0793 16.7213 14.0438 16.7284 14.0106 16.7421C13.9774 16.7559 13.9473 16.776 13.9219 16.8014C13.8965 16.8268 13.8764 16.857 13.8626 16.8901C13.8489 16.9233 13.8418 16.9589 13.8418 16.9948C13.8418 17.0307 13.8489 17.0662 13.8626 17.0994C13.8764 17.1326 13.8965 17.1627 13.9219 17.1881L14.3589 17.6251C14.3843 17.6505 14.4144 17.6706 14.4476 17.6844C14.4808 17.6981 14.5163 17.7052 14.5522 17.7052C14.5882 17.7052 14.6237 17.6981 14.6569 17.6844C14.6901 17.6706 14.7202 17.6505 14.7456 17.6251L15.7398 16.6309C15.7911 16.5796 15.8199 16.51 15.8199 16.4375C15.8199 16.365 15.7911 16.2954 15.7398 16.2442C15.6885 16.1929 15.619 16.1641 15.5465 16.1641C15.4739 16.1641 15.4044 16.1929 15.3531 16.2442L15.353 16.2443Z" fill="white"/>
<path d="M18.1583 11.5234H16.4409C16.3684 11.5234 16.2988 11.5522 16.2476 11.6035C16.1963 11.6548 16.1675 11.7244 16.1675 11.7969C16.1675 11.8694 16.1963 11.9389 16.2476 11.9902C16.2988 12.0415 16.3684 12.0703 16.4409 12.0703H18.1583C18.2309 12.0703 18.3004 12.0415 18.3517 11.9902C18.403 11.9389 18.4318 11.8694 18.4318 11.7969C18.4318 11.7244 18.403 11.6548 18.3517 11.6035C18.3004 11.5522 18.2309 11.5234 18.1583 11.5234Z" fill="white"/>
<path d="M18.1583 14.0234H16.4409C16.3684 14.0234 16.2988 14.0522 16.2476 14.1035C16.1963 14.1548 16.1675 14.2244 16.1675 14.2969C16.1675 14.3694 16.1963 14.4389 16.2476 14.4902C16.2988 14.5415 16.3684 14.5703 16.4409 14.5703H18.1583C18.2309 14.5703 18.3004 14.5415 18.3517 14.4902C18.403 14.4389 18.4318 14.3694 18.4318 14.2969C18.4318 14.2244 18.403 14.1548 18.3517 14.1035C18.3004 14.0522 18.2309 14.0234 18.1583 14.0234Z" fill="white"/>
<path d="M18.1583 16.5234H16.4409C16.3684 16.5234 16.2988 16.5522 16.2476 16.6035C16.1963 16.6548 16.1675 16.7244 16.1675 16.7969C16.1675 16.8694 16.1963 16.9389 16.2476 16.9902C16.2988 17.0415 16.3684 17.0703 16.4409 17.0703H18.1583C18.2309 17.0703 18.3004 17.0415 18.3517 16.9902C18.403 16.9389 18.4318 16.8694 18.4318 16.7969C18.4318 16.7244 18.403 16.6548 18.3517 16.6035C18.3004 16.5522 18.2309 16.5234 18.1583 16.5234Z" fill="white"/>
</svg>
