<svg width="20" height="20" viewBox="0 0 20 20" fill="none" xmlns="http://www.w3.org/2000/svg">
<path d="M8.48662 14.509C8.41397 14.4359 8.31318 14.3945 8.21006 14.3945C8.10732 14.3945 8.00693 14.4359 7.93389 14.509C7.86123 14.5816 7.81982 14.682 7.81982 14.7852C7.81982 14.8879 7.86123 14.9887 7.93389 15.0613C8.00693 15.1339 8.10732 15.1758 8.21006 15.1758C8.31318 15.1758 8.41357 15.134 8.48662 15.0613C8.55928 14.9887 8.60107 14.8879 8.60107 14.7852C8.60107 14.682 8.55928 14.5816 8.48662 14.509Z" fill="white"/>
<path d="M16.6668 14.509C16.5941 14.4359 16.4934 14.3945 16.3902 14.3945C16.2875 14.3945 16.1871 14.4359 16.1141 14.509C16.0414 14.5816 16 14.682 16 14.7852C16 14.8879 16.0414 14.9887 16.1141 15.0613C16.1871 15.1339 16.2875 15.1758 16.3902 15.1758C16.4934 15.1758 16.5938 15.134 16.6668 15.0613C16.7395 14.9887 16.7813 14.8879 16.7813 14.7852C16.7813 14.682 16.7395 14.5816 16.6668 14.509Z" fill="white"/>
<path d="M17.1474 8.72957H15.8005C16.2857 8.24551 16.5865 7.57648 16.5865 6.83852V3.73008V2.39062C16.5865 2.17488 16.4116 2 16.1959 2H13.1568C12.1009 2 11.2419 2.85902 11.2419 3.91492V5.19887C11.2419 5.2016 11.2422 5.20422 11.2423 5.20691C11.2422 5.20961 11.2419 5.21227 11.2419 5.21496V6.83852C11.2419 7.57648 11.5426 8.24547 12.0279 8.72957H7.81457C8.29984 8.24551 8.60059 7.57648 8.60059 6.83852V3.73008V2.39062C8.60059 2.17488 8.4257 2 8.20996 2H5.1709C4.115 2 3.25598 2.85902 3.25598 3.91492V5.19887C3.25598 5.2016 3.25633 5.20422 3.25637 5.20691C3.25633 5.20961 3.25598 5.21227 3.25598 5.21496V6.83852C3.25598 7.57648 3.55672 8.24547 4.04199 8.72957H3.16035C1.41773 8.72957 0 10.1473 0 11.89V16.7846C0 17.0004 0.174883 17.1753 0.390625 17.1753H6.5625C6.77824 17.1753 6.95312 17.0004 6.95312 16.7846C6.95312 16.5689 6.77824 16.394 6.5625 16.394H2.54734V13.8721C2.54734 13.6564 2.37246 13.4815 2.15672 13.4815C1.94098 13.4815 1.76609 13.6564 1.76609 13.8721V16.394H0.78125V11.89C0.78125 10.5781 1.84852 9.51082 3.16039 9.51082H4.25652L5.53766 11.4274V13.7556C5.53766 13.9713 5.71254 14.1462 5.92828 14.1462C6.14402 14.1462 6.31891 13.9713 6.31891 13.7556V11.4378L7.7457 9.51082H9.16152C10.3037 9.51082 11.2329 10.44 11.2329 11.5822V16.6094C11.2329 16.8251 11.4078 17 11.6235 17C11.8393 17 12.0141 16.8251 12.0141 16.6094V11.5822C12.0141 10.767 11.6699 10.0311 11.1198 9.51082H12.1636L13.5107 11.526C13.5813 11.6317 13.6989 11.6964 13.826 11.6994C13.8292 11.6995 13.8323 11.6995 13.8354 11.6995C13.959 11.6995 14.0756 11.641 14.1493 11.5414L15.6528 9.51086H17.1474C18.2895 9.51086 19.2188 10.4401 19.2188 11.5822V16.6094C19.2188 16.8251 19.3936 17 19.6094 17C19.8251 17 20 16.8251 20 16.6094V11.5822C20 10.0093 18.7203 8.72957 17.1474 8.72957ZM4.03727 3.91492C4.03727 3.2898 4.54582 2.78125 5.17094 2.78125H7.81938V3.73008C7.81938 4.32457 7.33574 4.80824 6.74121 4.80824H4.03727V3.91492ZM5.94461 10.6304L5.19621 9.51082H6.77359L5.94461 10.6304ZM5.92832 8.72961C4.88559 8.72961 4.03727 7.88129 4.03727 6.83855V5.58949H6.74121C7.14293 5.58949 7.515 5.46102 7.81938 5.24355V6.83855C7.81938 7.88129 6.97106 8.72961 5.92832 8.72961ZM12.0231 3.91492C12.0231 3.2898 12.5317 2.78125 13.1568 2.78125H15.8052V3.73008C15.8052 4.32457 15.3216 4.80824 14.7271 4.80824H12.0231V3.91492ZM13.8517 10.6304L13.1033 9.51082H14.6807L13.8517 10.6304ZM13.9142 8.72961C12.8715 8.72961 12.0231 7.88129 12.0231 6.83855V5.58949H14.7271C15.1288 5.58949 15.5009 5.46102 15.8053 5.24355V6.83855C15.8053 7.88129 14.957 8.72961 13.9142 8.72961Z" fill="white"/>
</svg>
